<svg width="198" height="40" viewBox="0 0 198 40" fill="none" xmlns="http://www.w3.org/2000/svg">
<g clip-path="url(#clip0_37_203)">
<path d="M19.9997 39.9995C31.0453 39.9995 39.9995 31.0453 39.9995 19.9997C39.9995 8.95419 31.0453 0 19.9997 0C8.95419 0 0 8.95419 0 19.9997C0 31.0453 8.95419 39.9995 19.9997 39.9995Z" fill="#FAAB78"/>
<path d="M40 19.9997C40 31.0456 31.0456 39.9995 20.0003 39.9995C8.95497 39.9995 0 31.0456 0 19.9997C0 8.95391 10.024 20.9542 21.0698 20.9542C32.1157 20.9542 40 8.95391 40 19.9997Z" fill="#C2FAF1"/>
<path d="M5.8576 34.1424C-1.95299 26.3319 -1.95299 13.6684 5.8576 5.85834C13.6682 -1.95172 26.3316 -1.95225 34.1417 5.85834C41.9523 13.6689 26.3789 12.2715 18.5683 20.0821C10.7577 27.8927 13.6682 41.953 5.8576 34.143V34.1424Z" fill="#153C44"/>
</g>
<g clip-path="url(#clip1_37_203)">
<path d="M75.5398 22.6194C75.5398 24.8222 74.8271 26.6028 73.4016 27.9613C71.9762 29.3208 70.0858 30 67.7305 30C65.3752 30 63.4971 29.3249 62.0983 27.9747C60.6994 26.6235 60 24.8387 60 22.6194V11.2387H64.3522V22.2581C64.3522 23.3419 64.6338 24.241 65.197 24.9543C65.7602 25.6686 66.6133 26.0258 67.7571 26.0258C68.901 26.0258 69.7755 25.6686 70.3295 24.9543C70.8835 24.241 71.161 23.3419 71.161 22.2581V11.2387H75.5388V22.6194H75.5398Z" fill="#151C1C"/>
<path d="M89.518 29.5097H85.2939V22.4903C85.2939 20.6839 84.662 19.7806 83.3994 19.7806C82.6825 19.7806 82.1275 20.048 81.7353 20.5806C81.3421 21.1143 81.1465 21.7677 81.1465 22.5419V29.5097H76.9223V16.6581H80.9929V18.4387H81.0441C81.3513 17.8369 81.851 17.329 82.5412 16.9161C83.2314 16.5032 84.0046 16.2968 84.8576 16.2968C86.4449 16.2968 87.6184 16.8088 88.3783 17.8328C89.1371 18.8568 89.517 20.0996 89.517 21.5613V29.5097H89.518Z" fill="#151C1C"/>
<path d="M95.3295 12.5548C95.3295 13.2093 95.095 13.7595 94.6249 14.2065C94.1549 14.6545 93.5886 14.8774 92.923 14.8774C92.2573 14.8774 91.69 14.6493 91.221 14.1941C90.751 13.7388 90.5165 13.1917 90.5165 12.5548C90.5165 11.9179 90.751 11.3936 91.221 10.929C91.69 10.4645 92.2573 10.2323 92.923 10.2323C93.5886 10.2323 94.1559 10.4604 94.6249 10.9156C95.0939 11.3719 95.3295 11.9179 95.3295 12.5548ZM95.0223 29.5097H90.8237V16.6581H95.0223V29.5097Z" fill="#151C1C"/>
<path d="M109.332 16.6581L104.314 29.5097H99.783L94.7652 16.6581H99.399L102.087 24.9935H102.164L104.852 16.6581H109.332Z" fill="#151C1C"/>
<path d="M121.672 23.2387C121.672 23.7032 121.663 24.0387 121.646 24.2452H112.404C112.472 24.9337 112.805 25.5097 113.403 25.9742C114 26.4387 114.683 26.671 115.451 26.671C116.68 26.671 117.618 26.224 118.267 25.329L121.186 27.1871C119.939 29.0111 118.011 29.9226 115.4 29.9226C113.403 29.9226 111.735 29.3156 110.394 28.1037C109.054 26.8908 108.385 25.2351 108.385 23.1365C108.385 21.0379 109.038 19.408 110.343 18.1425C111.648 16.8769 113.291 16.2452 115.271 16.2452C117.25 16.2452 118.727 16.8686 119.904 18.1156C121.082 19.3636 121.671 21.0699 121.671 23.2377L121.672 23.2387ZM112.404 21.6129H117.806C117.806 20.9079 117.589 20.3226 117.153 19.8581C116.717 19.3935 116.099 19.1613 115.297 19.1613C114.495 19.1613 113.846 19.4028 113.3 19.8839C112.754 20.3659 112.456 20.9419 112.404 21.6129Z" fill="#151C1C"/>
<path d="M130.812 16.4L130.632 20.1161C130.308 20.0305 129.949 19.9871 129.557 19.9871C128.549 19.9871 127.799 20.3009 127.304 20.9285C126.809 21.5572 126.562 22.2147 126.562 22.9022V29.5086H122.363V16.6581H126.408V18.5161H126.459C126.783 17.8452 127.253 17.3074 127.867 16.9037C128.482 16.5001 129.164 16.2968 129.915 16.2968C130.325 16.2968 130.623 16.3319 130.812 16.4Z" fill="#151C1C"/>
<path d="M140.386 18.0516L138.082 20.4516C137.279 19.6774 136.393 19.2903 135.42 19.2903C134.975 19.2903 134.6 19.377 134.293 19.5484C133.986 19.7208 133.832 19.9788 133.832 20.3226C133.832 20.6663 133.994 20.9161 134.319 21.071C134.642 21.2258 135.257 21.4064 136.162 21.6129C138.876 22.2323 140.233 23.5401 140.233 25.5355C140.233 27.0323 139.699 28.1378 138.633 28.8511C137.566 29.5644 136.282 29.9226 134.781 29.9226C133.722 29.9226 132.694 29.7502 131.696 29.4064C130.699 29.0627 129.875 28.5724 129.226 27.9355L131.582 25.4323C132.452 26.3964 133.492 26.8774 134.705 26.8774C135.115 26.8774 135.469 26.7866 135.768 26.607C136.066 26.4263 136.216 26.1466 136.216 25.7688C136.216 25.391 136.033 25.1071 135.665 24.9172C135.298 24.7283 134.637 24.5218 133.681 24.2978C131.206 23.7135 129.969 22.4655 129.969 20.5559C129.969 19.1458 130.506 18.0743 131.582 17.3435C132.657 16.6126 133.886 16.2472 135.268 16.2472C137.401 16.2472 139.108 16.8501 140.388 18.0537L140.386 18.0516Z" fill="#151C1C"/>
<path d="M159.202 16.8645C159.202 18.2065 158.856 19.3254 158.166 20.2194C157.474 21.1143 156.612 21.7378 155.58 22.0898C154.547 22.4428 153.357 22.6183 152.008 22.6183H149.832V29.5086H145.454V11.2387H152.111C154.261 11.2387 155.98 11.6815 157.27 12.5683C158.558 13.455 159.203 14.8867 159.203 16.8645H159.202ZM154.824 16.8903C154.824 15.4968 153.8 14.8 151.752 14.8H149.832V19.1097H151.675C153.775 19.1097 154.824 18.3706 154.824 16.8903Z" fill="#151C1C"/>
<path d="M163.989 29.5097H159.74V10H163.989V29.5097Z" fill="#151C1C"/>
<path d="M167.343 20.7097L165.218 18.4129C166.737 16.9677 168.631 16.2452 170.902 16.2452C173.001 16.2452 174.502 16.783 175.408 17.8576C176.312 18.9332 176.764 20.657 176.764 23.0312V29.5086H172.924V28.1409H172.847C172.54 28.657 172.054 29.0658 171.388 29.3672C170.723 29.6686 170.006 29.8194 169.238 29.8194C168.47 29.8194 167.783 29.7037 167.126 29.4705C166.469 29.2382 165.885 28.8036 165.373 28.1677C164.861 27.5319 164.605 26.7401 164.605 25.7935C164.605 22.9032 167.335 21.4581 172.797 21.4581V21.2516C172.797 20.6498 172.583 20.1894 172.157 19.8705C171.73 19.5525 171.175 19.3935 170.493 19.3935C169.332 19.3935 168.282 19.8323 167.344 20.7097H167.343ZM172.924 24.3484V23.9097H172.387C169.775 23.9097 168.47 24.495 168.47 25.6645C168.47 26.1125 168.649 26.4428 169.007 26.6575C169.366 26.8733 169.792 26.9796 170.287 26.9796C171.123 26.9796 171.772 26.7432 172.233 26.2694C172.694 25.7966 172.924 25.1556 172.924 24.3474V24.3484Z" fill="#151C1C"/>
<path d="M182.525 12.5548C182.525 13.2093 182.29 13.7595 181.82 14.2065C181.35 14.6545 180.784 14.8774 180.118 14.8774C179.453 14.8774 178.885 14.6493 178.416 14.1941C177.946 13.7388 177.712 13.1917 177.712 12.5548C177.712 11.9179 177.946 11.3936 178.416 10.929C178.885 10.4645 179.453 10.2323 180.118 10.2323C180.784 10.2323 181.351 10.4604 181.82 10.9156C182.289 11.3719 182.525 11.9179 182.525 12.5548ZM182.217 29.5097H178.019V16.6581H182.217V29.5097Z" fill="#151C1C"/>
<path d="M197.143 29.5097H193.277V27.8323H193.226C192.816 28.4692 192.232 28.9677 191.473 29.329C190.713 29.6903 189.907 29.871 189.054 29.871C187.211 29.871 185.738 29.2041 184.638 27.8705C183.537 26.5378 182.988 24.9244 182.988 23.0312C182.988 21.1381 183.542 19.5855 184.652 18.2705C185.761 16.9543 187.212 16.2968 189.004 16.2968C190.625 16.2968 191.922 16.8738 192.895 18.0258H192.946V10H197.145V29.5097H197.143ZM193.123 23.0581C193.123 22.1982 192.838 21.4323 192.265 20.7613C191.693 20.0903 190.956 19.7548 190.051 19.7548C189.147 19.7548 188.374 20.0769 187.837 20.7231C187.301 21.3693 187.03 22.1383 187.03 23.0333C187.03 23.9283 187.299 24.7283 187.837 25.3817C188.375 26.0361 189.113 26.3623 190.051 26.3623C190.989 26.3623 191.694 26.031 192.265 25.3693C192.837 24.7076 193.123 23.9365 193.123 23.0591V23.0581Z" fill="#151C1C"/>
</g>
<defs>
<clipPath id="clip0_37_203">
<rect width="40" height="40" fill="white"/>
</clipPath>
<clipPath id="clip1_37_203">
<rect width="137.143" height="20" fill="white" transform="translate(60 10)"/>
</clipPath>
</defs>
</svg>
