<svg width="40" height="40" viewBox="0 0 40 40" fill="none" xmlns="http://www.w3.org/2000/svg">
<g clip-path="url(#clip0_51_275)">
<path d="M19.9997 39.9995C31.0453 39.9995 39.9995 31.0453 39.9995 19.9997C39.9995 8.95419 31.0453 0 19.9997 0C8.95419 0 0 8.95419 0 19.9997C0 31.0453 8.95419 39.9995 19.9997 39.9995Z" fill="#FAAB78"/>
<path d="M40 19.9997C40 31.0456 31.0456 39.9995 20.0003 39.9995C8.95497 39.9995 0 31.0456 0 19.9997C0 8.95391 10.024 20.9542 21.0698 20.9542C32.1157 20.9542 40 8.95391 40 19.9997Z" fill="#C2FAF1"/>
<path d="M5.85761 34.1425C-1.95298 26.3319 -1.95298 13.6684 5.85761 5.85835C13.6682 -1.95172 26.3316 -1.95225 34.1417 5.85835C41.9523 13.6689 26.3789 12.2715 18.5683 20.0821C10.7577 27.8927 13.6682 41.953 5.85761 34.143V34.1425Z" fill="#153C44"/>
</g>
<defs>
<clipPath id="clip0_51_275">
<rect width="40" height="40" fill="white"/>
</clipPath>
</defs>
</svg>
